<?xml version="1.0" standalone="no"?>
<!DOCTYPE svg PUBLIC "-//W3C//DTD SVG 20010904//EN"
 "http://www.w3.org/TR/2001/REC-SVG-20010904/DTD/svg10.dtd">
<svg version="1.0" xmlns="http://www.w3.org/2000/svg"
 width="545.000000pt" height="529.000000pt" viewBox="0 0 545.000000 529.000000"
 preserveAspectRatio="xMidYMid meet">

<g transform="translate(0.000000,529.000000) scale(0.100000,-0.100000)"
fill="#000000" stroke="none">
<path d="M2560 5263 c-152 -12 -438 -70 -610 -124 -218 -69 -461 -188 -690
-337 -154 -101 -397 -320 -539 -487 -413 -486 -641 -1084 -643 -1690 -1 -211
11 -333 53 -539 59 -293 163 -553 333 -830 198 -324 531 -652 858 -847 176
-105 398 -204 568 -253 52 -16 106 -32 120 -37 47 -16 225 -49 343 -64 309
-39 605 -26 912 42 101 22 290 77 350 102 11 5 40 17 65 27 96 38 289 134 365
181 44 27 91 56 104 64 280 163 646 526 828 819 203 326 339 695 395 1065 20
137 17 573 -5 695 -58 318 -116 505 -238 755 -51 107 -170 308 -221 375 -228
300 -484 542 -738 695 -36 22 -75 46 -85 52 -110 70 -385 185 -565 237 -140
40 -330 79 -465 95 -82 10 -387 12 -495 4z m-320 -103 c0 -5 -5 -10 -11 -10
-5 0 -7 5 -4 10 3 6 8 10 11 10 2 0 4 -4 4 -10z m1457 -106 c-3 -3 -12 -4 -19
-1 -8 3 -5 6 6 6 11 1 17 -2 13 -5z m333 -148 c0 -2 -7 -7 -16 -10 -8 -3 -12
-2 -9 4 6 10 25 14 25 6z m-2233 -331 c67 -28 110 -105 97 -173 -8 -40 -69
-111 -111 -128 -74 -31 -155 -3 -198 69 -83 143 58 296 212 232z m-301 -194
c62 -38 97 -127 75 -194 -11 -33 -63 -97 -79 -97 -4 0 -13 -4 -20 -9 -11 -6
-10 -20 3 -72 25 -98 76 -229 106 -275 50 -73 129 -93 215 -52 54 25 72 51
118 173 71 190 81 235 52 235 -34 0 -86 93 -86 152 0 44 37 107 79 135 49 33
132 32 176 -1 94 -72 85 -219 -16 -275 -25 -14 -41 -32 -46 -49 -13 -53 -102
-290 -126 -338 -33 -64 -82 -110 -143 -133 l-49 -19 -7 -298 c-4 -165 -14
-676 -23 -1137 -14 -786 -14 -842 2 -908 19 -80 71 -149 130 -174 86 -36 223
-6 284 61 28 30 79 118 79 134 0 6 -45 10 -108 10 l-108 0 -32 33 c-25 26 -34
45 -39 85 -5 48 9 1137 23 1680 l6 242 1067 0 1068 0 -4 -842 c-3 -464 -8
-905 -12 -981 -7 -136 -8 -138 -37 -168 -57 -57 -53 -57 -698 -52 l-591 4 -34
-73 c-43 -91 -174 -227 -266 -275 -140 -73 -305 -99 -565 -90 -193 7 -302 29
-396 82 -133 75 -209 172 -262 337 -25 79 -27 93 -27 293 0 256 13 1094 22
1412 l6 232 -26 12 c-38 17 -70 90 -70 158 0 57 11 89 44 125 25 27 25 102 -2
321 -11 94 -18 189 -15 212 7 53 49 139 76 153 17 9 20 21 20 73 0 81 22 124
79 154 54 28 115 30 157 4z m3357 -195 c4 -10 1 -13 -9 -9 -7 3 -14 9 -14 14
0 14 17 10 23 -5z m38 -89 c-10 -9 -11 -8 -5 6 3 10 9 15 12 12 3 -3 0 -11 -7
-18z m-1725 -79 c137 -98 132 -295 -10 -383 -44 -27 -58 -30 -125 -30 -84 0
-118 14 -170 66 -50 49 -65 87 -66 159 0 77 23 129 77 173 54 43 103 58 180
54 57 -4 74 -9 114 -39z m-615 -298 c12 -7 19 -21 19 -40 0 -27 3 -30 34 -30
32 0 35 3 38 33 3 31 5 32 48 32 l45 0 3 -78 3 -77 322 2 322 3 5 80 c5 86 12
94 66 81 20 -5 24 -13 24 -41 0 -34 1 -35 40 -35 39 0 40 1 40 35 0 41 16 51
57 38 20 -7 28 -16 28 -34 0 -20 6 -25 31 -27 28 -3 32 0 37 27 5 25 11 31 33
31 47 0 64 -25 64 -97 l0 -63 101 0 c115 0 147 -12 173 -67 9 -18 16 -54 16
-78 l0 -45 -1071 0 -1072 0 6 39 c7 58 33 103 75 131 35 24 43 25 160 22 l122
-2 0 67 c0 83 7 95 51 91 30 -3 35 -7 39 -38 4 -31 8 -35 38 -36 31 -2 32 0
32 36 0 47 28 63 71 40z m-2154 -22 c-3 -8 -6 -5 -6 6 -1 11 2 17 5 13 3 -3 4
-12 1 -19z m4914 -641 c-8 -8 -11 -3 -11 19 1 25 2 27 11 11 8 -14 8 -22 0
-30z m16 -149 c-2 -13 -4 -3 -4 22 0 25 2 35 4 23 2 -13 2 -33 0 -45z m-5187
-63 c-6 -30 -8 -33 -9 -13 -1 25 8 62 14 56 2 -2 -1 -21 -5 -43z m-3 -87 c-3
-7 -5 -2 -5 12 0 14 2 19 5 13 2 -7 2 -19 0 -25z m5213 -208 c-6 -11 -13 -20
-15 -20 -3 0 -5 9 -5 20 0 11 7 20 15 20 13 0 14 -4 5 -20z m-23 -292 c-3 -7
-5 -2 -5 12 0 14 2 19 5 13 2 -7 2 -19 0 -25z m-17 -18 c0 -5 -2 -10 -4 -10
-3 0 -8 5 -11 10 -3 6 -1 10 4 10 6 0 11 -4 11 -10z m-10 -136 c0 -8 -4 -12
-10 -9 -5 3 -10 10 -10 16 0 5 5 9 10 9 6 0 10 -7 10 -16z m-63 -106 c-3 -8
-6 -5 -6 6 -1 11 2 17 5 13 3 -3 4 -12 1 -19z m-17 -88 c-8 -5 -17 -7 -19 -4
-3 3 1 9 9 14 8 5 17 7 19 4 3 -3 -1 -9 -9 -14z m-4983 -37 c-3 -10 -5 -2 -5
17 0 19 2 27 5 18 2 -10 2 -26 0 -35z m4894 -190 c-12 -20 -14 -14 -5 12 4 9
9 14 11 11 3 -2 0 -13 -6 -23z m-4744 -175 c-3 -8 -6 -5 -6 6 -1 11 2 17 5 13
3 -3 4 -12 1 -19z m373 -548 c0 -5 -5 -10 -11 -10 -5 0 -7 5 -4 10 3 6 8 10
11 10 2 0 4 -4 4 -10z m3585 -328 c-3 -3 -11 0 -18 7 -9 10 -8 11 6 5 10 -3
15 -9 12 -12z m-95 -32 c0 -14 -42 -50 -59 -50 -9 0 -1 9 17 20 17 11 32 24
32 30 0 5 2 10 5 10 3 0 5 -4 5 -10z m-165 -119 c-16 -14 -55 -23 -55 -12 0 8
16 14 55 20 5 0 5 -2 0 -8z m-78 -43 c-3 -8 -6 -5 -6 6 -1 11 2 17 5 13 3 -3
4 -12 1 -19z"/>
<path d="M1280 4070 c-35 -49 -36 -118 -4 -359 28 -214 29 -220 55 -235 37
-22 69 -92 69 -149 0 -57 -11 -87 -46 -122 l-26 -27 -8 -231 c-5 -128 -14
-527 -21 -887 -11 -606 -11 -661 5 -740 35 -176 113 -287 243 -347 126 -58
183 -67 413 -67 233 1 303 11 405 58 108 51 188 126 238 223 32 62 30 63 -107
63 l-124 0 -52 -69 c-147 -200 -312 -278 -471 -226 -86 29 -180 130 -210 227
-14 43 -12 327 6 1198 8 382 15 806 15 941 l0 246 -41 19 c-56 25 -119 90
-145 150 -12 27 -41 108 -64 179 -46 139 -57 166 -74 177 -20 14 -34 8 -56
-22z"/>
<path d="M2970 3200 c-27 -27 -25 -66 5 -95 31 -32 74 -33 103 -2 46 48 14
117 -53 117 -22 0 -43 -8 -55 -20z"/>
<path d="M3835 2980 c-10 -11 -24 -20 -32 -20 -7 0 -13 -9 -13 -20 0 -17 4
-19 26 -14 l26 7 -4 -64 c-3 -54 0 -64 15 -67 15 -3 17 7 17 97 0 56 -4 101
-8 101 -5 0 -17 -9 -27 -20z"/>
<path d="M3496 2961 c-18 -19 -16 -51 2 -51 5 0 17 9 27 20 23 25 35 26 35 2
0 -10 -10 -24 -23 -31 -13 -7 -29 -27 -37 -44 -7 -18 -15 -35 -18 -39 -2 -5
24 -8 57 -8 48 0 61 3 61 15 0 10 -11 15 -35 15 -19 0 -35 3 -35 6 0 4 14 18
31 33 25 22 30 33 27 62 -3 31 -6 34 -39 37 -25 2 -40 -3 -53 -17z"/>
<path d="M3833 2661 c-26 -22 -30 -51 -8 -51 12 0 15 -13 15 -60 0 -47 3 -60
15 -60 12 0 15 17 15 95 0 52 -3 95 -7 95 -5 -1 -18 -9 -30 -19z"/>
<path d="M2603 2653 c-26 -18 -31 -46 -7 -36 13 5 14 -2 8 -56 -6 -58 -5 -61
15 -61 19 0 21 5 21 69 0 38 3 76 6 85 8 20 -14 20 -43 -1z"/>
<path d="M3186 2662 c-10 -16 1 -141 13 -156 17 -20 55 -21 70 -2 7 8 11 32 9
52 -2 31 -8 39 -27 44 -35 8 -37 28 -4 32 17 2 29 10 31 21 3 14 -4 17 -42 17
-25 0 -47 -3 -50 -8z m68 -101 c9 -14 -5 -41 -20 -41 -20 0 -30 30 -13 41 18
11 26 11 33 0z"/>
<path d="M2901 2613 c-17 -26 -31 -54 -31 -61 0 -24 25 -39 58 -34 20 2 32 0
32 -7 0 -6 5 -11 11 -11 6 0 8 7 5 16 -4 9 -1 23 5 30 9 11 8 14 -1 14 -8 0
-11 15 -8 48 3 42 1 47 -19 50 -17 3 -29 -8 -52 -45z m42 -27 c-5 -23 -30 -43
-40 -32 -7 7 30 66 37 61 4 -3 5 -16 3 -29z"/>
<path d="M3517 2642 c-20 -22 -24 -114 -4 -130 28 -22 56 -23 76 -3 39 39 15
110 -31 95 -15 -4 -19 -2 -16 7 3 8 18 16 34 19 40 7 36 24 -7 28 -24 2 -40
-3 -52 -16z m56 -75 c8 -20 -9 -41 -27 -34 -23 9 -21 47 3 47 10 0 21 -6 24
-13z"/>
<path d="M2948 2332 c-20 -29 -9 -146 15 -150 14 -3 17 5 19 57 1 34 2 71 2
83 1 28 -19 34 -36 10z"/>
<path d="M3245 2337 c-6 -6 -12 -42 -13 -79 -1 -64 0 -68 23 -74 49 -12 56 -1
53 83 -3 75 -4 78 -28 80 -14 2 -30 -3 -35 -10z m43 -44 c2 -8 -5 -13 -17 -13
-12 0 -21 6 -21 16 0 18 31 15 38 -3z m0 -65 c-2 -13 -10 -23 -18 -23 -8 0
-16 10 -18 23 -3 17 2 22 18 22 16 0 21 -5 18 -22z"/>
<path d="M3433 2343 c-18 -7 -16 -33 2 -33 12 0 15 -14 15 -65 0 -49 3 -65 14
-65 20 0 28 43 20 111 -7 59 -14 67 -51 52z"/>
<path d="M3730 2266 c0 -47 5 -88 10 -91 14 -8 17 6 25 98 6 73 5 77 -15 77
-19 0 -20 -6 -20 -84z"/>
<path d="M3836 2329 c-17 -14 -26 -30 -26 -50 0 -24 4 -29 25 -29 14 0 25 5
25 10 0 6 7 10 16 10 10 0 14 -7 12 -22 -3 -26 -41 -36 -64 -18 -22 19 -18
-13 4 -33 45 -41 92 -4 92 71 0 80 -31 103 -84 61z m49 -29 c0 -8 -8 -16 -17
-18 -13 -2 -18 3 -18 18 0 15 5 20 18 18 9 -2 17 -10 17 -18z"/>
<path d="M2250 2296 c0 -43 1 -45 33 -48 37 -4 45 -31 10 -36 -13 -2 -23 1
-23 7 0 6 -7 11 -16 11 -10 0 -14 -7 -12 -22 2 -19 10 -24 45 -26 38 -3 44 0
55 22 17 39 -3 76 -42 76 -40 0 -39 18 2 22 22 2 34 9 36 21 3 14 -4 17 -42
17 l-46 0 0 -44z"/>
<path d="M2581 2324 c-21 -15 -23 -22 -17 -68 6 -56 32 -88 66 -79 33 9 41 29
38 95 -3 62 -3 63 -33 66 -16 1 -41 -5 -54 -14z m53 -19 c7 -20 -4 -47 -17
-42 -6 2 -15 11 -21 20 -8 13 -7 20 4 27 21 13 27 12 34 -5z m6 -69 c0 -20
-16 -29 -40 -21 -32 10 -25 35 10 35 19 0 30 -5 30 -14z"/>
<path d="M2874 2325 c-16 -13 -17 -16 -4 -24 16 -11 17 -15 19 -79 2 -74 22
-42 25 41 3 81 -3 90 -40 62z"/>
<path d="M3164 2326 c-10 -26 1 -139 14 -144 9 -3 12 17 12 77 0 49 -4 81 -10
81 -6 0 -13 -6 -16 -14z"/>
<path d="M3553 2323 c-4 -10 -13 -22 -20 -28 -10 -7 -11 -23 -7 -58 7 -47 18
-56 19 -15 0 12 6 23 14 26 10 3 12 -4 6 -37 -6 -34 -4 -41 9 -41 13 0 16 13
16 69 0 38 3 76 6 85 4 12 0 16 -15 16 -12 0 -25 -8 -28 -17z"/>
<path d="M2630 2011 c-6 -13 -17 -17 -30 -14 -17 5 -20 0 -20 -27 0 -27 2 -31
15 -20 24 20 37 2 29 -45 -7 -49 0 -67 21 -58 12 4 15 25 15 94 0 88 -9 109
-30 70z"/>
<path d="M2956 2018 c-3 -7 -7 -31 -10 -52 -5 -40 -21 -65 -32 -53 -4 4 0 25
9 47 13 33 13 40 2 40 -18 0 -33 -28 -40 -76 -7 -51 7 -74 35 -56 26 16 30 15
30 -7 0 -20 17 -37 27 -27 3 3 5 43 5 88 -1 110 0 108 -12 108 -6 0 -12 -6
-14 -12z"/>
<path d="M2166 2005 c-9 -9 -16 -23 -16 -31 0 -12 4 -13 23 -3 12 7 25 17 29
23 14 21 21 -26 9 -64 -8 -26 -21 -44 -39 -52 -24 -12 -38 -38 -19 -38 4 0 23
0 43 0 34 0 36 2 30 26 -4 16 -1 35 8 49 24 37 66 75 81 75 27 0 15 -35 -25
-73 -22 -20 -40 -46 -40 -57 0 -17 7 -20 50 -20 38 0 50 4 50 15 0 10 -10 15
-30 15 -16 0 -30 3 -30 6 0 3 16 20 36 39 29 28 35 40 32 67 -3 29 -7 33 -35
36 -25 3 -35 -2 -49 -23 l-17 -26 -11 23 c-14 28 -57 35 -80 13z"/>
<path d="M2500 1998 l-25 -23 23 -3 c20 -3 22 -9 22 -69 0 -47 3 -64 13 -61
22 8 21 178 -1 178 -5 0 -19 -10 -32 -22z"/>
<path d="M2805 2004 c-19 -14 -19 -16 -2 -28 13 -10 17 -28 17 -70 0 -43 3
-56 15 -56 11 0 15 14 17 60 1 33 2 70 2 82 1 28 -22 33 -49 12z"/>
<path d="M3125 2006 c-43 -16 -55 -25 -55 -42 0 -17 39 -19 45 -1 7 18 55 18
55 0 0 -8 -18 -36 -40 -62 -22 -26 -40 -50 -40 -54 0 -10 78 -8 84 2 3 5 -1
14 -8 20 -12 10 -11 18 10 48 26 39 31 72 12 91 -14 14 -22 14 -63 -2z"/>
<path d="M3232 2012 c-9 -6 -12 -28 -11 -66 2 -52 4 -56 23 -50 58 19 91 68
69 103 -11 18 -61 26 -81 13z m58 -36 c0 -28 -12 -46 -31 -46 -22 0 -22 0 -9
34 10 27 40 36 40 12z"/>
<path d="M3517 2000 c-30 -24 -37 -25 -37 -4 0 24 -64 15 -68 -10 -3 -16 0
-18 22 -12 22 5 26 3 26 -15 0 -12 -13 -41 -30 -66 -16 -24 -30 -46 -30 -49 0
-2 20 -4 45 -4 46 0 54 7 34 27 -15 15 -5 54 21 84 l20 24 -7 -34 -6 -33 34 7
c32 6 69 36 69 56 0 14 -38 49 -54 49 -7 0 -25 -9 -39 -20z m50 -26 c7 -18
-17 -38 -31 -24 -11 11 -1 40 14 40 6 0 13 -7 17 -16z"/>
<path d="M3791 2004 c-17 -12 -26 -13 -34 -5 -15 15 -50 14 -65 -1 -19 -19
-14 -28 18 -28 17 0 30 -2 30 -5 0 -3 -16 -25 -35 -51 -50 -65 -47 -74 25 -74
47 0 60 3 60 15 0 11 -11 15 -40 15 l-40 0 33 48 c40 58 44 62 85 62 l33 0
-20 -27 c-25 -37 -37 -113 -17 -113 9 0 17 15 21 40 4 22 19 59 35 82 16 23
26 46 24 50 -9 14 -89 8 -113 -8z"/>
<path d="M3207 1873 c-4 -3 -7 -12 -7 -20 0 -9 16 -13 55 -13 41 0 55 4 55 14
0 21 -86 36 -103 19z"/>
<path d="M3510 1860 c0 -17 7 -20 46 -20 38 0 45 3 40 16 -3 9 -6 18 -6 20 0
2 -18 4 -40 4 -33 0 -40 -3 -40 -20z"/>
<path d="M3110 1670 c-24 -24 -26 -50 -5 -50 8 0 15 5 15 10 0 6 9 10 20 10
15 0 20 -7 20 -25 0 -14 -4 -25 -8 -25 -7 0 -42 -68 -42 -81 0 -3 43 -6 95 -7
l95 -3 0 29 c0 15 -6 34 -12 41 -10 11 -10 14 0 18 7 3 12 23 12 50 0 37 -3
44 -16 39 -9 -3 -24 -6 -34 -6 -18 0 -47 -36 -37 -47 3 -2 14 1 26 8 11 7 23
10 27 6 11 -11 -12 -30 -38 -31 -12 0 -24 -8 -26 -17 -2 -10 3 -17 10 -16 43
1 59 -4 56 -19 -2 -12 -16 -17 -48 -19 -52 -3 -65 2 -52 18 20 25 24 88 7 113
-19 29 -39 30 -65 4z"/>
<path d="M2137 1662 c-23 -25 -21 -42 3 -42 11 0 20 4 20 9 0 18 34 22 49 6
15 -15 13 -19 -15 -43 -28 -24 -64 -73 -64 -86 0 -3 48 -5 106 -5 94 0 105 2
102 17 -2 10 -14 18 -31 20 -30 4 -38 22 -9 22 30 0 52 33 52 78 0 39 -2 42
-28 42 -42 0 -66 -31 -60 -78 8 -56 -26 -93 -70 -77 -10 4 -5 15 17 40 30 34
38 66 25 99 -9 23 -76 21 -97 -2z m191 -39 c-2 -10 -13 -19 -26 -21 -24 -4
-25 -2 -16 22 9 23 46 21 42 -1z"/>
<path d="M2477 1673 c-4 -3 -7 -15 -7 -25 0 -22 26 -24 34 -2 7 18 26 9 26
-13 0 -8 -11 -28 -25 -45 -38 -46 -28 -88 21 -88 29 0 51 27 36 42 -9 9 -12 9
-12 0 0 -7 -7 -12 -15 -12 -22 0 -18 38 5 45 15 5 20 15 20 40 0 52 -9 65 -44
65 -18 0 -36 -3 -39 -7z"/>
<path d="M2591 1666 c-7 -8 -14 -38 -16 -67 -6 -65 12 -99 53 -99 45 0 51 10
50 88 0 59 -4 74 -19 82 -25 14 -55 12 -68 -4z m57 -39 c3 -12 -4 -17 -22 -17
-28 0 -33 9 -14 28 15 15 32 10 36 -11z m0 -71 c2 -10 -1 -23 -7 -29 -14 -14
-41 9 -41 35 0 26 43 21 48 -6z"/>
<path d="M2778 1661 c-10 -10 -18 -21 -18 -24 0 -11 48 -8 55 3 8 13 35 13 35
-1 0 -6 -18 -32 -40 -58 -56 -67 -54 -81 14 -81 34 0 56 5 59 13 4 10 7 10 18
0 19 -19 76 -16 83 3 8 20 8 112 0 142 -8 29 -35 28 -67 -4 l-25 -25 -4 23
c-3 20 -9 23 -48 25 -32 2 -50 -3 -62 -16z m186 -37 c18 -48 -5 -117 -34 -99
-10 6 -5 87 7 108 7 12 21 8 27 -9z m-74 -46 c0 -42 -1 -43 -35 -45 -19 -2
-35 1 -35 5 0 8 60 80 68 81 1 1 2 -18 2 -41z"/>
<path d="M3400 1665 c-17 -21 3 -46 22 -27 18 18 38 14 38 -7 0 -10 -16 -31
-35 -45 -54 -41 -43 -86 22 -86 35 0 58 26 47 54 -8 22 -18 20 -29 -6 -12 -27
-38 -30 -43 -6 -2 11 5 21 20 27 34 13 50 35 51 73 2 32 0 33 -39 36 -28 2
-45 -2 -54 -13z"/>
<path d="M3525 1665 c-3 -8 -7 -22 -10 -31 -3 -8 0 -24 5 -34 7 -12 7 -28 0
-44 -7 -19 -6 -29 6 -41 19 -18 58 -20 72 -2 14 16 13 138 0 155 -15 17 -68
15 -73 -3z m55 -29 c0 -8 -5 -18 -11 -22 -14 -8 -33 11 -25 25 10 16 36 13 36
-3z m-2 -81 c-2 -14 -7 -26 -13 -26 -5 0 -11 12 -13 26 -2 18 1 25 13 25 12 0
15 -7 13 -25z"/>
<path d="M2997 3930 c-87 -26 -110 -122 -46 -190 57 -59 166 -31 190 49 26 89
-55 168 -144 141z"/>
<path d="M2400 3530 l0 -70 34 0 c39 0 46 14 46 93 l0 47 -40 0 -40 0 0 -70z"/>
<path d="M2557 3593 c-9 -8 -9 -96 -1 -117 4 -11 19 -16 45 -16 l39 0 0 70 0
70 -38 0 c-21 0 -42 -3 -45 -7z"/>
<path d="M3503 3592 c-21 -3 -23 -9 -23 -68 l0 -65 38 3 37 3 0 64 c0 68 -3
71 -52 63z"/>
<path d="M3630 3529 l0 -70 43 3 42 3 3 68 3 67 -46 0 -45 0 0 -71z"/>
<path d="M7 224 c-4 -4 -7 -14 -7 -23 0 -11 3 -12 11 -4 6 6 10 16 7 23 -2 6
-7 8 -11 4z"/>
<path d="M40 211 c13 -10 13 -12 0 -21 -12 -8 -11 -10 8 -10 29 0 27 33 -3 38
-17 3 -17 1 -5 -7z"/>
</g>
</svg>
